<svg viewBox="0 0 151.667 140" xmlns="http://www.w3.org/2000/svg" xmlns:xlink="http://www.w3.org/1999/xlink" width="151.666672" height="140.000000" fill="none" customFrame="#000000">
	<path id="Vector 12" d="M122.5 0L29.1667 0C10.6284 0 2.28882e-05 10.6283 2.28882e-05 29.1667C2.28882e-05 45.0391 13.9942 63.0992 26.5592 69.3875L31.1325 71.6742C36.3475 89.1158 51.5025 102.276 70 104.597L70 116.667C70 123.112 64.7792 128.333 58.3334 128.333L46.6667 128.333L46.6667 140L105 140L105 128.333L93.3334 128.333C86.8875 128.333 81.6667 123.112 81.6667 116.667L81.6667 104.597C100.164 102.276 115.319 89.1158 120.534 71.6742L125.108 69.3875C137.673 63.0992 151.667 45.0391 151.667 29.1667C151.667 10.6283 141.038 0 122.5 0ZM11.6667 29.1667C11.6667 17.0625 17.0625 11.6667 29.1667 11.6667L29.1667 57.3417C19.9909 51.275 11.6667 38.2667 11.6667 29.1667ZM110.833 58.3333C110.833 77.6359 95.1358 93.3333 75.8334 93.3333C56.5309 93.3333 40.8334 77.6359 40.8334 58.3333L40.8334 11.6667L110.833 11.6667L110.833 58.3333ZM122.5 57.3417L122.5 11.6667C134.604 11.6667 140 17.0625 140 29.1667C140 38.2667 131.676 51.275 122.5 57.3417ZM46.6667 58.3333L58.3334 58.3333C58.3334 67.9817 66.185 75.8333 75.8334 75.8333L75.8334 87.5C59.7509 87.5 46.6667 74.4158 46.6667 58.3333Z" fill="rgb(255,215,88)" fill-rule="nonzero" />
</svg>
