<svg viewBox="0 0 140 140" xmlns="http://www.w3.org/2000/svg" xmlns:xlink="http://www.w3.org/1999/xlink" width="140.000000" height="140.000000" fill="none" customFrame="#000000">
	<path id="Vector 13" d="M0 70C0 31.4017 31.4018 0 70.0002 0C108.598 0 140 31.4017 140 70C140 108.598 108.599 140 70.0002 140C31.4018 140 0 108.598 0 70ZM5.00363 70C5.00363 105.839 34.161 134.996 70.0002 134.996C105.839 134.996 134.996 105.839 134.997 69.9995C134.997 34.1607 105.839 5.00362 70.0002 5.00362C34.161 5.00362 5.00363 34.1609 5.00363 70ZM100.747 37.3429C100.747 44.6869 106.722 50.6612 114.066 50.6612C115.448 50.6612 116.567 51.7812 116.567 53.1629C116.567 54.5446 115.447 55.6648 114.065 55.6648C103.963 55.6648 95.7434 47.4456 95.7434 37.3429C95.7434 35.9613 96.8634 34.841 98.2454 34.841C99.6276 34.841 100.747 35.9613 100.747 37.3429ZM39.2524 37.3432C39.2524 35.9615 40.3724 34.8413 41.7544 34.8413C43.1362 34.8413 44.2561 35.9613 44.2561 37.343L44.2561 37.3435C44.2561 47.4461 36.0368 55.6651 25.9341 55.6654C24.5519 55.6654 23.4322 54.5451 23.4322 53.1634C23.4322 51.7817 24.5522 50.6615 25.9341 50.6615C33.2781 50.6615 39.2524 44.6869 39.2524 37.3432ZM40.1201 53.6294C45.224 53.6294 49.3765 57.7818 49.3765 62.8857C49.3765 67.9897 45.224 72.1421 40.1201 72.1421C35.0161 72.1421 30.8637 67.9897 30.8637 62.8857C30.8637 57.7818 35.0161 53.6294 40.1201 53.6294ZM90.6233 62.8857C90.6233 57.7818 94.7757 53.6294 99.8797 53.6294C104.984 53.6294 109.136 57.7815 109.136 62.8852L109.136 62.8857C109.136 67.9897 104.984 72.1421 99.8797 72.1421C94.7757 72.1421 90.6233 67.9897 90.6233 62.8857ZM70.3124 82.139C80.6273 82.139 90.325 86.156 97.6189 93.4496C98.1074 93.9382 98.3517 94.5784 98.3517 95.2187C98.3517 95.8588 98.1075 96.499 97.6192 96.9876C97.1303 97.4763 96.4899 97.7205 95.8498 97.7205C95.2091 97.7205 94.569 97.4763 94.0804 96.9876C87.732 90.639 79.291 87.1426 70.3124 87.1426C61.3338 87.1426 52.8928 90.639 46.5444 96.9876C45.5674 97.9646 43.9834 97.9646 43.0062 96.9876C42.5177 96.499 42.2734 95.8588 42.2734 95.2185C42.2734 94.5783 42.5177 93.9381 43.0062 93.4496C50.2998 86.1557 59.9975 82.139 70.3124 82.139ZM69.999 92.4398C73.3623 92.4398 76.7037 93.2585 79.6615 94.8072C80.5152 95.2545 81.0033 96.1252 81.0033 97.0265C81.0033 97.4173 80.9114 97.8139 80.7178 98.1842C80.271 99.0376 79.4004 99.5259 78.4994 99.5259C78.1081 99.5259 77.7111 99.4343 77.3409 99.2402C75.0956 98.0644 72.5573 97.4434 69.9991 97.4434C67.4419 97.4434 64.9041 98.0644 62.6597 99.2396C61.4364 99.8809 59.924 99.4081 59.2825 98.1839C59.0885 97.8135 58.9966 97.4167 58.9966 97.0256C58.9966 96.1246 59.4848 95.2542 60.3383 94.8072C63.2963 93.2585 66.6366 92.4398 69.999 92.4398Z" fill="rgb(255,92,88)" fill-rule="evenodd" />
</svg>
